<svg width="183" height="184" viewBox="0 0 183 184" fill="none" xmlns="http://www.w3.org/2000/svg">
<g clip-path="url(#clip0_2012_27)">
<g filter="url(#filter0_d_2012_27)">
<circle cx="91.6099" cy="91.9262" r="90.6247" transform="rotate(-26.2996 91.6099 91.9262)" fill="white"/>
<circle cx="91.7466" cy="92.0138" r="72.6671" transform="rotate(-26.2996 91.7466 92.0138)" fill="#FFCA95" stroke="#FC6727" stroke-width="11.5689"/>
<path d="M147.981 108.879L147.346 110.98L139.132 108.58L139.767 106.479L142.79 107.36L144.07 102.958L141.047 102.078L141.613 100.04L149.827 102.44L149.261 104.478L146.238 103.597L144.958 107.999L147.981 108.879Z" fill="#252525"/>
<path d="M143.091 118.967C142.537 119.406 141.925 119.643 141.191 119.674C140.456 119.704 139.668 119.466 138.76 118.955L134.924 116.969L135.955 114.954L138.604 116.682L138.68 116.486C137.712 115.839 137.145 115.145 136.915 114.401C136.685 113.657 136.79 112.863 137.231 112.018C137.675 111.107 138.236 110.535 138.85 110.232C139.465 109.929 140.127 110.028 140.908 110.399C141.364 110.621 141.68 110.97 141.927 111.382C142.173 111.793 142.281 112.332 142.255 112.863C142.226 113.462 142.06 114.12 141.696 114.768L140.516 117.109C140.911 117.195 141.313 117.148 141.592 116.895C141.868 116.709 142.223 116.26 142.518 115.675C142.737 115.285 142.819 114.956 142.836 114.624C142.852 114.292 142.801 113.956 142.625 113.481L144.544 112.376C144.971 113.196 145.135 113.937 145.166 114.671C145.197 115.406 145.032 116.064 144.667 116.712C144.147 117.819 143.646 118.528 143.091 118.967ZM138.691 114.888C138.608 115.217 138.592 115.549 138.712 115.822C138.832 116.094 139.019 116.37 139.341 116.585L140.521 114.244C140.886 113.596 140.842 113.127 140.387 112.905C140.19 112.829 139.991 112.819 139.788 112.876C139.586 112.933 139.373 113.189 139.224 113.515C138.929 114.1 138.773 114.559 138.691 114.888Z" fill="#252525"/>
<path d="M128.946 124.806L130.296 123.073L134.789 126.624L132.997 119.608L134.418 117.812L141.16 123.071L139.952 124.611C140.497 124.371 141.035 124.264 141.564 124.357C142.096 124.383 142.618 124.608 143.067 124.963L141.647 126.759C141.328 126.477 140.998 126.395 140.659 126.511C140.321 126.628 140.038 126.947 139.683 127.396C139.328 127.845 139.179 128.171 139.163 128.504C139.147 128.836 139.267 129.108 139.653 129.394L138.233 131.19C137.784 130.835 137.474 130.353 137.297 129.878C137.123 129.337 137.079 128.868 137.175 128.273L135.824 130.006L128.946 124.806ZM137.118 128.07C137.287 127.346 137.582 126.761 138.076 126.185C138.574 125.543 139.198 125.041 139.813 124.738L135.317 121.253L137.118 128.07Z" fill="#252525"/>
<path d="M123.346 130.328C123.651 129.543 124.152 128.835 124.985 128.143C125.543 127.637 126.224 127.337 126.965 127.173C127.706 127.01 128.434 127.112 129.156 127.347C129.878 127.582 130.523 128.014 131.026 128.638C131.529 129.262 131.899 129.88 132.059 130.687C132.223 131.428 132.188 132.159 131.953 132.88C131.718 133.602 131.287 134.247 130.729 134.753C129.129 136.14 127.444 136.524 125.681 135.772L126.25 133.668C126.712 133.757 127.111 133.776 127.443 133.793C127.776 133.809 128.045 133.755 128.251 133.632C128.457 133.509 128.729 133.389 128.942 133.133C129.426 132.757 129.652 132.235 129.677 131.703C129.703 131.171 129.526 130.696 129.15 130.212C128.707 129.724 128.252 129.502 127.72 129.476C127.188 129.45 126.709 129.693 126.225 130.069C125.876 130.385 125.594 130.704 125.508 131.1C125.356 131.492 125.333 131.957 125.377 132.426L123.164 132.717C123.073 131.847 123.111 131.049 123.346 130.328Z" fill="#252525"/>
<path d="M116.886 143.937L112.647 136.534L114.497 135.492L116.646 139.261L115.799 134.756L117.788 133.587L121.24 136.621L119.09 132.851L120.94 131.809L125.179 139.212L123.123 140.377L118.112 136.535L118.875 142.768L116.886 143.937Z" fill="#252525"/>
<path d="M108.159 146.642C107.427 146.607 106.842 146.312 106.333 145.82C105.823 145.329 105.394 144.575 105.106 143.628L103.774 139.499L105.94 138.806L106.59 141.902L106.792 141.845C106.581 140.702 106.623 139.838 106.991 139.123C107.359 138.409 107.98 137.973 108.93 137.619C109.877 137.332 110.682 137.239 111.337 137.47C111.992 137.702 112.432 138.257 112.659 139.067C112.836 139.542 112.813 140.008 112.724 140.47C112.635 140.932 112.346 141.384 111.928 141.763C111.51 142.143 110.892 142.512 110.214 142.745L107.709 143.556C107.959 143.901 108.282 144.117 108.611 144.199C108.94 144.282 109.478 144.175 110.086 144.005C110.492 143.892 110.767 143.705 111.046 143.452C111.259 143.196 111.474 142.874 111.693 142.485L113.865 143.057C113.557 143.908 113.189 144.623 112.697 145.132C112.206 145.641 111.588 146.011 110.911 146.244C109.698 146.518 108.89 146.678 108.159 146.642ZM107.851 140.631C107.575 140.818 107.363 141.074 107.217 141.333C107.071 141.592 107.055 141.925 107.102 142.327L109.607 141.517C110.352 141.286 110.634 140.967 110.457 140.492C110.4 140.289 110.274 140.15 110.011 140.071C109.815 139.994 109.482 139.978 109.14 140.161C108.605 140.202 108.196 140.382 107.851 140.631Z" fill="#252525"/>
<path d="M101.871 143.004C102.396 143.163 102.779 143.515 103.092 143.93C103.405 144.345 103.572 145.02 103.667 145.824L103.953 148.17L101.673 148.458L101.377 146.311C101.333 145.843 101.15 145.501 100.957 145.358C100.764 145.216 100.435 145.133 99.8962 145.24L97.2141 145.575L97.6478 148.994L95.3679 149.282L94.312 140.836L96.5919 140.548L96.9914 143.299L99.8762 142.907C100.681 142.813 101.345 142.845 101.871 143.004Z" fill="#252525"/>
<path d="M85.9824 149.022L83.7884 148.915L84.3379 140.347L86.532 140.454L86.3137 143.575L90.8981 143.866L91.1164 140.745L93.244 140.849L92.6977 149.35L90.5701 149.246L90.7883 146.126L86.2039 145.835L85.9824 149.022Z" fill="#252525"/>
<path d="M80.9894 148.911C81.1759 149.186 81.2295 149.456 81.1469 149.785C81.0642 150.114 80.9183 150.373 80.6427 150.559C80.3671 150.746 80.0314 150.796 79.7022 150.713C79.373 150.631 79.1135 150.485 78.9269 150.209C78.7404 149.933 78.6868 149.664 78.7695 149.335C78.8521 149.006 78.998 148.747 79.2736 148.56C79.5493 148.374 79.8184 148.321 80.1476 148.403C80.5466 148.423 80.8028 148.635 80.9894 148.911ZM81.4174 148.332L79.1729 147.889L80.843 139.576L83.0875 140.019L81.4174 148.332Z" fill="#252525"/>
<path d="M69.6492 145.026L67.4874 144.254L70.2781 136.195L80.3054 139.684L77.5147 147.742L75.3529 146.97L77.3722 141.073L75.6661 140.523L73.6468 146.42L71.485 145.648L73.5043 139.751L71.6685 139.128L69.6492 145.026Z" fill="#252525"/>
<path d="M65.4434 143.754C65.5602 144.093 65.5473 144.359 65.3982 144.685C65.2491 145.011 65.0399 145.2 64.7043 145.251C64.3654 145.367 64.0994 145.354 63.7767 145.139C63.5172 144.993 63.2609 144.78 63.2106 144.445C63.0937 144.106 63.1731 143.843 63.3223 143.517C63.4714 143.192 63.6805 143.002 64.0194 142.885C64.3583 142.769 64.6243 142.782 64.9503 142.931C65.1368 143.206 65.3266 143.416 65.4434 143.754ZM65.9979 143.315L63.9155 142.281L67.8172 134.676L69.8996 135.711L65.9979 143.315Z" fill="#252525"/>
<path d="M58.6584 138.026C57.9109 138.322 57.173 138.42 56.4449 138.317C55.7168 138.215 55.0583 138.05 54.4761 137.688L54.0869 137.469C53.3084 137.031 52.7229 136.736 52.3272 136.65C51.9315 136.564 51.5959 136.615 51.3835 136.871L49.5864 135.45C50.0144 134.872 50.4992 134.496 50.9078 134.316C51.3164 134.136 51.7883 134.026 52.2505 134.115C52.7126 134.204 53.3013 134.433 53.9468 134.864L54.4026 135.086C55.3741 135.667 56.2887 136.045 57.0233 136.014C57.7579 135.983 58.5655 135.823 59.1296 135.184L58.8734 134.972C58.5913 135.291 58.1827 135.471 57.7805 135.518C57.3119 135.562 56.8465 135.539 56.3875 135.383C55.9286 135.227 55.4728 135.005 55.1533 134.723C54.3845 134.086 53.8817 133.462 53.5815 132.781C53.2814 132.1 53.1807 131.429 53.2762 130.834C53.375 130.172 53.67 129.587 54.0948 129.075C54.5195 128.563 55.0741 128.123 55.6821 127.953C56.2934 127.717 56.9615 127.683 57.6864 127.851C58.4113 128.02 59.1266 128.388 59.8954 129.025C61.3064 130.16 62.0494 131.329 62.2572 132.539C62.465 133.748 62.0048 134.991 61.0126 136.209L60.797 136.531C60.0966 137.23 59.4059 137.729 58.6584 138.026ZM59.9237 132.558C59.7468 132.083 59.3008 131.661 58.6617 131.097C58.086 130.603 57.5005 130.307 56.9718 130.215C56.4431 130.123 56.0378 130.236 55.7557 130.555C55.4703 130.941 55.3845 131.337 55.6278 131.815C55.8712 132.293 56.2475 132.778 56.8898 133.276C57.532 133.773 58.1143 134.135 58.5765 134.224C59.0386 134.313 59.444 134.2 59.7294 133.814C60.0844 133.365 60.1703 132.97 59.9237 132.558Z" fill="#252525"/>
<path d="M53.9257 124.335C54.0232 125.073 53.918 125.867 53.683 126.588C53.3815 127.306 52.9503 127.952 52.3261 128.454C51.7019 128.957 51.0176 129.323 50.2133 129.417C49.409 129.511 48.6776 129.475 47.956 129.24C47.2343 129.005 46.5888 128.573 46.0859 127.949C45.5831 127.325 45.2829 126.644 45.1855 125.906C45.088 125.169 45.1933 124.374 45.4282 123.653C45.7297 122.935 46.1609 122.29 46.7852 121.787C47.4094 121.285 48.0936 120.919 48.9012 120.758C49.7087 120.598 50.4401 120.633 51.1585 120.935C51.8802 121.17 52.5257 121.602 53.0285 122.226C53.5314 122.85 53.8315 123.531 53.9257 124.335ZM49.8584 123.004C49.3265 122.978 48.7817 123.217 48.2969 123.593C47.8121 123.969 47.5203 124.488 47.428 125.017C47.3357 125.545 47.5093 126.087 47.8889 126.505C48.2652 126.99 48.7209 127.212 49.3193 127.241C49.8512 127.267 50.396 127.027 50.8808 126.651C51.3656 126.275 51.6574 125.756 51.7497 125.228C51.842 124.699 51.7349 124.161 51.2888 123.74C50.846 123.252 50.3903 123.03 49.8584 123.004Z" fill="#252525"/>
<path d="M37.8019 114.622L42.7852 114.932L45.2622 110.589L46.4286 112.645L44.6049 115.887L45.7681 118.009L48.5083 116.478L49.5514 118.328L42.0879 122.427L41.0448 120.577L43.7851 119.045L42.6219 116.923L38.8986 116.741L37.8019 114.622Z" fill="#252525"/>
<path d="M42.6582 103.866C43.2308 104.427 43.7272 105.184 44.0777 106.2C44.3081 106.945 44.3391 107.679 44.1706 108.404C44.0021 109.128 43.6373 109.777 43.1429 110.352C42.6484 110.928 41.9642 111.294 41.2166 111.59C40.4691 111.887 39.7345 111.918 38.9431 111.746C38.2182 111.577 37.4998 111.275 36.924 110.781C36.3482 110.286 35.9119 109.665 35.6814 108.921C34.9805 106.888 35.3271 105.24 36.6582 103.906L38.392 105.256C38.1067 105.642 37.9543 106.034 37.8085 106.294C37.729 106.556 37.6464 106.885 37.6367 107.085C37.6238 107.351 37.6774 107.62 37.7942 107.959C37.9646 108.567 38.3442 108.985 38.7999 109.207C39.2556 109.429 39.7875 109.455 40.3291 109.282C40.9372 109.112 41.3555 108.732 41.5776 108.277C41.7996 107.821 41.8255 107.29 41.5886 106.678C41.6047 106.346 41.3581 105.934 41.1051 105.655C40.8521 105.377 40.3963 105.154 39.9374 104.999L40.5093 102.828C41.3672 103.003 42.0857 103.305 42.6582 103.866Z" fill="#252525"/>
<path d="M32.6336 93.4479L41.0853 92.3287L41.3808 94.4752L35.681 95.1959L41.9688 98.8345L42.258 101.114L33.8063 102.233L33.5074 100.153L39.2073 99.4323L32.9195 95.7937L32.6336 93.4479Z" fill="#252525"/>
<circle cx="74.3332" cy="76.4174" r="19.9899" transform="rotate(-12.21 74.3332 76.4174)" fill="white"/>
<circle cx="109.161" cy="68.8791" r="19.9899" transform="rotate(-12.21 109.161 68.8791)" fill="white"/>
<path fill-rule="evenodd" clip-rule="evenodd" d="M109.64 85.787C105.175 86.7563 100.753 85.8521 97.1318 83.6558C99.6465 75.2899 97.6367 65.9729 91.8989 59.3974C93.1334 57.5899 94.7082 56.0204 96.5617 54.7846C93.5137 62.0205 97.8424 70.4885 105.468 72.2671C112.905 74.0035 120.347 68.6383 121.149 61.0652C126.351 70.9356 120.609 83.4051 109.641 85.786L109.64 85.787ZM112.604 58.8279C113.508 63.0174 105.122 64.8377 104.218 60.6481C103.314 56.4586 111.7 54.6383 112.604 58.8279ZM86.6079 85.9389C80.5707 94.78 67.6817 95.9109 60.2107 88.2962C52.7988 80.7344 54.204 67.9382 63.0191 62.0649C60.0533 69.1117 64.0604 77.351 71.3932 79.3994C78.9275 81.5051 86.7831 76.107 87.6061 68.3451C90.5646 73.9615 90.2042 80.675 86.6079 85.9389ZM73.964 62.8295C78.1567 61.9194 79.9642 70.2986 75.7715 71.2087C71.5784 72.1189 69.7709 63.7397 73.964 62.8295V62.8295ZM100.603 43.8896C94.1498 45.2903 88.812 49.0103 85.2205 53.9697C66.2129 43.1532 42.7376 60.5029 47.3252 81.7701C51.9125 103.036 80.4382 109.098 93.2875 91.3663C109.214 100.431 129.806 89.7593 131.637 71.5691C133.359 54.4627 117.396 40.2445 100.603 43.8897" fill="#252525"/>
</g>
</g>
<defs>
<filter id="filter0_d_2012_27" x="-6.89235" y="-4.33116" width="197.004" height="197.005" filterUnits="userSpaceOnUse" color-interpolation-filters="sRGB">
<feFlood flood-opacity="0" result="BackgroundImageFix"/>
<feColorMatrix in="SourceAlpha" type="matrix" values="0 0 0 0 0 0 0 0 0 0 0 0 0 0 0 0 0 0 127 0" result="hardAlpha"/>
<feOffset dy="2.24496"/>
<feGaussianBlur stdDeviation="3.92869"/>
<feComposite in2="hardAlpha" operator="out"/>
<feColorMatrix type="matrix" values="0 0 0 0 0 0 0 0 0 0 0 0 0 0 0 0 0 0 0.25 0"/>
<feBlend mode="normal" in2="BackgroundImageFix" result="effect1_dropShadow_2012_27"/>
<feBlend mode="normal" in="SourceGraphic" in2="effect1_dropShadow_2012_27" result="shape"/>
</filter>
<clipPath id="clip0_2012_27">
<rect width="183" height="184" fill="white"/>
</clipPath>
</defs>
</svg>
