<svg width="21" height="21" viewBox="0 0 21 21" fill="none" xmlns="http://www.w3.org/2000/svg">
<path d="M10.2436 5.12179C9.23059 5.1218 8.24035 5.42218 7.39807 5.98497C6.5558 6.54776 5.89932 7.34768 5.51167 8.28356C5.12401 9.21945 5.02258 10.2493 5.22021 11.2428C5.41783 12.2363 5.90564 13.1489 6.62193 13.8652C7.33823 14.5815 8.25085 15.0693 9.24438 15.267C10.2379 15.4646 11.2677 15.3632 12.2036 14.9755C13.1395 14.5879 13.9394 13.9314 14.5022 13.0891C15.065 12.2468 15.3654 11.2566 15.3654 10.2436C15.3654 8.88521 14.8258 7.58246 13.8652 6.62193C12.9047 5.66141 11.602 5.12179 10.2436 5.12179ZM10.2436 13.3167C9.63579 13.3167 9.04164 13.1364 8.53628 12.7988C8.03091 12.4611 7.63703 11.9811 7.40444 11.4196C7.17184 10.8581 7.11099 10.2402 7.22956 9.64406C7.34814 9.04794 7.64082 8.50037 8.0706 8.0706C8.50037 7.64082 9.04794 7.34814 9.64406 7.22956C10.2402 7.11099 10.8581 7.17184 11.4196 7.40444C11.9811 7.63703 12.4611 8.03091 12.7988 8.53628C13.1364 9.04164 13.3167 9.63579 13.3167 10.2436C13.3167 11.0586 12.9929 11.8403 12.4166 12.4166C11.8403 12.9929 11.0586 13.3167 10.2436 13.3167ZM15.3654 4.09744C15.1628 4.09744 14.9647 4.15751 14.7963 4.27007C14.6278 4.38263 14.4965 4.54261 14.419 4.72979C14.3415 4.91697 14.3212 5.12293 14.3607 5.32164C14.4002 5.52034 14.4978 5.70287 14.6411 5.84613C14.7843 5.98939 14.9668 6.08695 15.1655 6.12647C15.3642 6.166 15.5702 6.14571 15.7574 6.06818C15.9446 5.99065 16.1046 5.85935 16.2171 5.6909C16.3297 5.52244 16.3897 5.32439 16.3897 5.12179C16.3897 4.85012 16.2818 4.58957 16.0897 4.39746C15.8976 4.20536 15.6371 4.09744 15.3654 4.09744ZM20.4257 6.392C20.4087 5.51661 20.2425 4.65053 19.934 3.8311C19.648 3.08544 19.2084 2.40826 18.6436 1.84354C18.0789 1.27881 17.4017 0.839172 16.6561 0.553154C15.8366 0.244719 14.9706 0.0784327 14.0952 0.0614615C13.1016 -5.72405e-08 12.7738 0 10.2436 0C7.71342 0 7.38563 -5.72405e-08 6.392 0.0614615C5.51661 0.0784327 4.65053 0.244719 3.8311 0.553154C3.08544 0.839172 2.40826 1.27881 1.84354 1.84354C1.27881 2.40826 0.839172 3.08544 0.553154 3.8311C0.244719 4.65053 0.0784327 5.51661 0.0614615 6.392C-5.72405e-08 7.39587 0 7.72367 0 10.2436C0 12.7635 -5.72405e-08 13.0913 0.0614615 14.0952C0.0784327 14.9706 0.244719 15.8366 0.553154 16.6561C0.839172 17.4017 1.27881 18.0789 1.84354 18.6436C2.40826 19.2084 3.08544 19.648 3.8311 19.934C4.65053 20.2425 5.51661 20.4087 6.392 20.4257C7.41636 20.4257 7.71342 20.4872 10.2436 20.4872C12.7738 20.4872 13.1016 20.4872 14.0952 20.4257C14.9706 20.4087 15.8366 20.2425 16.6561 19.934C17.4017 19.648 18.0789 19.2084 18.6436 18.6436C19.2084 18.0789 19.648 17.4017 19.934 16.6561C20.2425 15.8366 20.4087 14.9706 20.4257 14.0952C20.4257 13.0708 20.4872 12.7635 20.4872 10.2436C20.4872 7.72367 20.4872 7.39587 20.4257 6.392ZM18.377 14.003C18.359 14.6531 18.238 15.2962 18.0185 15.9083C17.8369 16.3921 17.55 16.8295 17.1785 17.1887C16.8214 17.5604 16.3832 17.8444 15.8981 18.0185C15.2845 18.247 14.6371 18.3716 13.9825 18.3872C13.0196 18.3872 12.7225 18.4385 10.2333 18.4385C7.74415 18.4385 7.45733 18.4385 6.49444 18.4385C5.84092 18.4216 5.19427 18.3006 4.57888 18.0799C4.09504 17.8984 3.65765 17.6115 3.29844 17.24C2.92675 16.8829 2.64276 16.4446 2.4687 15.9595C2.2411 15.3492 2.11648 14.7053 2.09994 14.0542C2.09994 13.0298 2.09994 12.7738 2.09994 10.2948C2.09994 7.81586 2.09994 7.5188 2.09994 6.53541C2.11759 5.88106 2.24216 5.234 2.4687 4.61986C2.64547 4.13906 2.92919 3.70472 3.29844 3.34965C3.6555 2.97797 4.09376 2.69398 4.57888 2.51992C5.19247 2.29138 5.83986 2.16675 6.49444 2.15115C7.45733 2.04872 7.7544 2.04872 10.2436 2.04872C12.7328 2.04872 13.0298 2.04872 13.9927 2.04872C14.6505 2.06544 15.3011 2.19002 15.9185 2.41749C16.3993 2.59425 16.8337 2.87797 17.1887 3.24722C17.5604 3.60428 17.8444 4.04254 18.0185 4.52767C18.2692 5.15105 18.4113 5.81281 18.4385 6.48419C18.4385 7.50855 18.4897 7.76464 18.4897 10.2436C18.4897 12.7225 18.4385 13.0196 18.4385 14.003H18.377Z" fill="white"/>
</svg>
